<?xml version="1.0" encoding="us-ascii" standalone="no"?><svg xmlns="http://www.w3.org/2000/svg" xmlns:xlink="http://www.w3.org/1999/xlink" contentStyleType="text/css" height="713px" preserveAspectRatio="none" style="width:715px;height:713px;background:#FFFFFF;" version="1.1" viewBox="0 0 715 713" width="715px" zoomAndPan="magnify"><defs/><g><!--class User--><g id="elem_User"><rect codeLine="1" fill="#F1F1F1" height="96.8906" id="User" rx="2.5" ry="2.5" style="stroke:#181818;stroke-width:0.5;" width="141" x="397.5" y="15"/><ellipse cx="448.25" cy="31" fill="#ADD1B2" rx="11" ry="11" style="stroke:#181818;stroke-width:1.0;"/><path d="M450.5938,26.6719 C449.6563,26.2344 449.0625,26.0938 448.1875,26.0938 C445.5625,26.0938 443.5625,28.1719 443.5625,30.8906 L443.5625,32.0156 C443.5625,34.5938 445.6719,36.4844 448.5625,36.4844 C449.7813,36.4844 450.9375,36.1875 451.6875,35.6406 C452.2656,35.2344 452.5938,34.7813 452.5938,34.3906 C452.5938,33.9375 452.2031,33.5469 451.7344,33.5469 C451.5156,33.5469 451.3125,33.625 451.125,33.8125 C450.6719,34.2969 450.6719,34.2969 450.4844,34.3906 C450.0625,34.6563 449.375,34.7813 448.6094,34.7813 C446.5625,34.7813 445.2656,33.6875 445.2656,31.9844 L445.2656,30.8906 C445.2656,29.1094 446.5156,27.7969 448.25,27.7969 C448.8281,27.7969 449.4375,27.9531 449.9063,28.2031 C450.3906,28.4844 450.5625,28.7031 450.6563,29.1094 C450.7188,29.5156 450.75,29.6406 450.8906,29.7656 C451.0313,29.9063 451.2656,30.0156 451.4844,30.0156 C451.75,30.0156 452.0156,29.875 452.1875,29.6563 C452.2969,29.5 452.3281,29.3125 452.3281,28.8906 L452.3281,27.4688 C452.3281,27.0313 452.3125,26.9063 452.2188,26.75 C452.0625,26.4844 451.7813,26.3438 451.4844,26.3438 C451.1875,26.3438 450.9844,26.4375 450.7656,26.75 L450.5938,26.6719 Z " fill="#000000"/><text fill="#000000" font-family="sans-serif" font-size="14" lengthAdjust="spacing" textLength="31" x="468.75" y="35.8467">User</text><line style="stroke:#181818;stroke-width:0.5;" x1="398.5" x2="537.5" y1="47" y2="47"/><line style="stroke:#181818;stroke-width:0.5;" x1="398.5" x2="537.5" y1="55" y2="55"/><ellipse cx="408.5" cy="68.6484" fill="#84BE84" rx="3" ry="3" style="stroke:#038048;stroke-width:1.0;"/><text fill="#000000" font-family="sans-serif" font-size="14" lengthAdjust="spacing" textLength="115" x="417.5" y="71.9951">createDrawing()</text><ellipse cx="408.5" cy="84.9453" fill="#84BE84" rx="3" ry="3" style="stroke:#038048;stroke-width:1.0;"/><text fill="#000000" font-family="sans-serif" font-size="14" lengthAdjust="spacing" textLength="97" x="417.5" y="88.292">editDrawing()</text><ellipse cx="408.5" cy="101.2422" fill="#84BE84" rx="3" ry="3" style="stroke:#038048;stroke-width:1.0;"/><text fill="#000000" font-family="sans-serif" font-size="14" lengthAdjust="spacing" textLength="100" x="417.5" y="104.5889">saveDrawing()</text></g><!--class Drawing--><g id="elem_Drawing"><rect codeLine="7" fill="#F1F1F1" height="129.4844" id="Drawing" rx="2.5" ry="2.5" style="stroke:#181818;stroke-width:0.5;" width="266" x="335" y="197"/><ellipse cx="434.75" cy="213" fill="#ADD1B2" rx="11" ry="11" style="stroke:#181818;stroke-width:1.0;"/><path d="M437.0938,208.6719 C436.1563,208.2344 435.5625,208.0938 434.6875,208.0938 C432.0625,208.0938 430.0625,210.1719 430.0625,212.8906 L430.0625,214.0156 C430.0625,216.5938 432.1719,218.4844 435.0625,218.4844 C436.2813,218.4844 437.4375,218.1875 438.1875,217.6406 C438.7656,217.2344 439.0938,216.7813 439.0938,216.3906 C439.0938,215.9375 438.7031,215.5469 438.2344,215.5469 C438.0156,215.5469 437.8125,215.625 437.625,215.8125 C437.1719,216.2969 437.1719,216.2969 436.9844,216.3906 C436.5625,216.6563 435.875,216.7813 435.1094,216.7813 C433.0625,216.7813 431.7656,215.6875 431.7656,213.9844 L431.7656,212.8906 C431.7656,211.1094 433.0156,209.7969 434.75,209.7969 C435.3281,209.7969 435.9375,209.9531 436.4063,210.2031 C436.8906,210.4844 437.0625,210.7031 437.1563,211.1094 C437.2188,211.5156 437.25,211.6406 437.3906,211.7656 C437.5313,211.9063 437.7656,212.0156 437.9844,212.0156 C438.25,212.0156 438.5156,211.875 438.6875,211.6563 C438.7969,211.5 438.8281,211.3125 438.8281,210.8906 L438.8281,209.4688 C438.8281,209.0313 438.8125,208.9063 438.7188,208.75 C438.5625,208.4844 438.2813,208.3438 437.9844,208.3438 C437.6875,208.3438 437.4844,208.4375 437.2656,208.75 L437.0938,208.6719 Z " fill="#000000"/><text fill="#000000" font-family="sans-serif" font-size="14" lengthAdjust="spacing" textLength="58" x="455.25" y="217.8467">Drawing</text><line style="stroke:#181818;stroke-width:0.5;" x1="336" x2="600" y1="229" y2="229"/><rect fill="none" height="6" style="stroke:#C82930;stroke-width:1.0;" width="6" x="343" y="239.6484"/><text fill="#000000" font-family="sans-serif" font-size="14" lengthAdjust="spacing" textLength="152" x="355" y="245.9951">shapes: List&lt;Shape&gt;</text><rect fill="none" height="6" style="stroke:#C82930;stroke-width:1.0;" width="6" x="343" y="255.9453"/><text fill="#000000" font-family="sans-serif" font-size="14" lengthAdjust="spacing" textLength="140" x="355" y="262.292">currentLayer: Layer</text><line style="stroke:#181818;stroke-width:0.5;" x1="336" x2="600" y1="269.5938" y2="269.5938"/><ellipse cx="346" cy="283.2422" fill="#84BE84" rx="3" ry="3" style="stroke:#038048;stroke-width:1.0;"/><text fill="#000000" font-family="sans-serif" font-size="14" lengthAdjust="spacing" textLength="178" x="355" y="286.5889">addShape(shape: Shape)</text><ellipse cx="346" cy="299.5391" fill="#84BE84" rx="3" ry="3" style="stroke:#038048;stroke-width:1.0;"/><text fill="#000000" font-family="sans-serif" font-size="14" lengthAdjust="spacing" textLength="207" x="355" y="302.8857">removeShape(shape: Shape)</text><ellipse cx="346" cy="315.8359" fill="#84BE84" rx="3" ry="3" style="stroke:#038048;stroke-width:1.0;"/><text fill="#000000" font-family="sans-serif" font-size="14" lengthAdjust="spacing" textLength="240" x="355" y="319.1826">setCurrentLayerView(layout/Grid)</text></g><!--class Shape--><g id="elem_Shape"><rect codeLine="15" fill="#F1F1F1" height="129.4844" id="Shape" rx="2.5" ry="2.5" style="stroke:#181818;stroke-width:0.5;" width="290" x="106" y="403"/><ellipse cx="224.25" cy="419" fill="#ADD1B2" rx="11" ry="11" style="stroke:#181818;stroke-width:1.0;"/><path d="M226.5938,414.6719 C225.6563,414.2344 225.0625,414.0938 224.1875,414.0938 C221.5625,414.0938 219.5625,416.1719 219.5625,418.8906 L219.5625,420.0156 C219.5625,422.5938 221.6719,424.4844 224.5625,424.4844 C225.7813,424.4844 226.9375,424.1875 227.6875,423.6406 C228.2656,423.2344 228.5938,422.7813 228.5938,422.3906 C228.5938,421.9375 228.2031,421.5469 227.7344,421.5469 C227.5156,421.5469 227.3125,421.625 227.125,421.8125 C226.6719,422.2969 226.6719,422.2969 226.4844,422.3906 C226.0625,422.6563 225.375,422.7813 224.6094,422.7813 C222.5625,422.7813 221.2656,421.6875 221.2656,419.9844 L221.2656,418.8906 C221.2656,417.1094 222.5156,415.7969 224.25,415.7969 C224.8281,415.7969 225.4375,415.9531 225.9063,416.2031 C226.3906,416.4844 226.5625,416.7031 226.6563,417.1094 C226.7188,417.5156 226.75,417.6406 226.8906,417.7656 C227.0313,417.9063 227.2656,418.0156 227.4844,418.0156 C227.75,418.0156 228.0156,417.875 228.1875,417.6563 C228.2969,417.5 228.3281,417.3125 228.3281,416.8906 L228.3281,415.4688 C228.3281,415.0313 228.3125,414.9063 228.2188,414.75 C228.0625,414.4844 227.7813,414.3438 227.4844,414.3438 C227.1875,414.3438 226.9844,414.4375 226.7656,414.75 L226.5938,414.6719 Z " fill="#000000"/><text fill="#000000" font-family="sans-serif" font-size="14" lengthAdjust="spacing" textLength="45" x="244.75" y="423.8467">Shape</text><line style="stroke:#181818;stroke-width:0.5;" x1="107" x2="395" y1="435" y2="435"/><rect fill="none" height="6" style="stroke:#C82930;stroke-width:1.0;" width="6" x="114" y="445.6484"/><text fill="#000000" font-family="sans-serif" font-size="14" lengthAdjust="spacing" textLength="106" x="126" y="451.9951">position: Point</text><line style="stroke:#181818;stroke-width:0.5;" x1="107" x2="395" y1="459.2969" y2="459.2969"/><ellipse cx="117" cy="472.9453" fill="#84BE84" rx="3" ry="3" style="stroke:#038048;stroke-width:1.0;"/><text fill="#000000" font-family="sans-serif" font-size="14" lengthAdjust="spacing" textLength="154" x="126" y="476.292">moveTo(point: Point)</text><ellipse cx="117" cy="489.2422" fill="#84BE84" rx="3" ry="3" style="stroke:#038048;stroke-width:1.0;"/><text fill="#000000" font-family="sans-serif" font-size="14" lengthAdjust="spacing" textLength="264" x="126" y="492.5889">resize(width: double, height: double)</text><ellipse cx="117" cy="505.5391" fill="#84BE84" rx="3" ry="3" style="stroke:#038048;stroke-width:1.0;"/><text fill="#000000" font-family="sans-serif" font-size="14" lengthAdjust="spacing" textLength="172" x="126" y="508.8857">rotate(degrees: double)</text><ellipse cx="117" cy="521.8359" fill="#84BE84" rx="3" ry="3" style="stroke:#038048;stroke-width:1.0;"/><text fill="#000000" font-family="sans-serif" font-size="14" lengthAdjust="spacing" textLength="44" x="126" y="525.1826">draw()</text></g><!--class Line--><g id="elem_Line"><rect codeLine="23" fill="#F1F1F1" height="96.8906" id="Line" rx="2.5" ry="2.5" style="stroke:#181818;stroke-width:0.5;" width="146" x="7" y="601"/><ellipse cx="60.75" cy="617" fill="#ADD1B2" rx="11" ry="11" style="stroke:#181818;stroke-width:1.0;"/><path d="M63.0938,612.6719 C62.1563,612.2344 61.5625,612.0938 60.6875,612.0938 C58.0625,612.0938 56.0625,614.1719 56.0625,616.8906 L56.0625,618.0156 C56.0625,620.5938 58.1719,622.4844 61.0625,622.4844 C62.2813,622.4844 63.4375,622.1875 64.1875,621.6406 C64.7656,621.2344 65.0938,620.7813 65.0938,620.3906 C65.0938,619.9375 64.7031,619.5469 64.2344,619.5469 C64.0156,619.5469 63.8125,619.625 63.625,619.8125 C63.1719,620.2969 63.1719,620.2969 62.9844,620.3906 C62.5625,620.6563 61.875,620.7813 61.1094,620.7813 C59.0625,620.7813 57.7656,619.6875 57.7656,617.9844 L57.7656,616.8906 C57.7656,615.1094 59.0156,613.7969 60.75,613.7969 C61.3281,613.7969 61.9375,613.9531 62.4063,614.2031 C62.8906,614.4844 63.0625,614.7031 63.1563,615.1094 C63.2188,615.5156 63.25,615.6406 63.3906,615.7656 C63.5313,615.9063 63.7656,616.0156 63.9844,616.0156 C64.25,616.0156 64.5156,615.875 64.6875,615.6563 C64.7969,615.5 64.8281,615.3125 64.8281,614.8906 L64.8281,613.4688 C64.8281,613.0313 64.8125,612.9063 64.7188,612.75 C64.5625,612.4844 64.2813,612.3438 63.9844,612.3438 C63.6875,612.3438 63.4844,612.4375 63.2656,612.75 L63.0938,612.6719 Z " fill="#000000"/><text fill="#000000" font-family="sans-serif" font-size="14" lengthAdjust="spacing" textLength="30" x="81.25" y="621.8467">Line</text><line style="stroke:#181818;stroke-width:0.5;" x1="8" x2="152" y1="633" y2="633"/><rect fill="none" height="6" style="stroke:#C82930;stroke-width:1.0;" width="6" x="15" y="643.6484"/><text fill="#000000" font-family="sans-serif" font-size="14" lengthAdjust="spacing" textLength="120" x="27" y="649.9951">startPoint: Point</text><rect fill="none" height="6" style="stroke:#C82930;stroke-width:1.0;" width="6" x="15" y="659.9453"/><text fill="#000000" font-family="sans-serif" font-size="14" lengthAdjust="spacing" textLength="112" x="27" y="666.292">endPoint: Point</text><line style="stroke:#181818;stroke-width:0.5;" x1="8" x2="152" y1="673.5938" y2="673.5938"/><ellipse cx="18" cy="687.2422" fill="#84BE84" rx="3" ry="3" style="stroke:#038048;stroke-width:1.0;"/><text fill="#000000" font-family="sans-serif" font-size="14" lengthAdjust="spacing" textLength="44" x="27" y="690.5889">draw()</text></g><!--class Circle--><g id="elem_Circle"><rect codeLine="29" fill="#F1F1F1" height="96.8906" id="Circle" rx="2.5" ry="2.5" style="stroke:#181818;stroke-width:0.5;" width="126" x="188" y="601"/><ellipse cx="226.85" cy="617" fill="#ADD1B2" rx="11" ry="11" style="stroke:#181818;stroke-width:1.0;"/><path d="M229.1938,612.6719 C228.2563,612.2344 227.6625,612.0938 226.7875,612.0938 C224.1625,612.0938 222.1625,614.1719 222.1625,616.8906 L222.1625,618.0156 C222.1625,620.5938 224.2719,622.4844 227.1625,622.4844 C228.3813,622.4844 229.5375,622.1875 230.2875,621.6406 C230.8656,621.2344 231.1938,620.7813 231.1938,620.3906 C231.1938,619.9375 230.8031,619.5469 230.3344,619.5469 C230.1156,619.5469 229.9125,619.625 229.725,619.8125 C229.2719,620.2969 229.2719,620.2969 229.0844,620.3906 C228.6625,620.6563 227.975,620.7813 227.2094,620.7813 C225.1625,620.7813 223.8656,619.6875 223.8656,617.9844 L223.8656,616.8906 C223.8656,615.1094 225.1156,613.7969 226.85,613.7969 C227.4281,613.7969 228.0375,613.9531 228.5063,614.2031 C228.9906,614.4844 229.1625,614.7031 229.2563,615.1094 C229.3188,615.5156 229.35,615.6406 229.4906,615.7656 C229.6313,615.9063 229.8656,616.0156 230.0844,616.0156 C230.35,616.0156 230.6156,615.875 230.7875,615.6563 C230.8969,615.5 230.9281,615.3125 230.9281,614.8906 L230.9281,613.4688 C230.9281,613.0313 230.9125,612.9063 230.8188,612.75 C230.6625,612.4844 230.3813,612.3438 230.0844,612.3438 C229.7875,612.3438 229.5844,612.4375 229.3656,612.75 L229.1938,612.6719 Z " fill="#000000"/><text fill="#000000" font-family="sans-serif" font-size="14" lengthAdjust="spacing" textLength="41" x="246.15" y="621.8467">Circle</text><line style="stroke:#181818;stroke-width:0.5;" x1="189" x2="313" y1="633" y2="633"/><rect fill="none" height="6" style="stroke:#C82930;stroke-width:1.0;" width="6" x="196" y="643.6484"/><text fill="#000000" font-family="sans-serif" font-size="14" lengthAdjust="spacing" textLength="95" x="208" y="649.9951">center: Point</text><rect fill="none" height="6" style="stroke:#C82930;stroke-width:1.0;" width="6" x="196" y="659.9453"/><text fill="#000000" font-family="sans-serif" font-size="14" lengthAdjust="spacing" textLength="100" x="208" y="666.292">radius: double</text><line style="stroke:#181818;stroke-width:0.5;" x1="189" x2="313" y1="673.5938" y2="673.5938"/><ellipse cx="199" cy="687.2422" fill="#84BE84" rx="3" ry="3" style="stroke:#038048;stroke-width:1.0;"/><text fill="#000000" font-family="sans-serif" font-size="14" lengthAdjust="spacing" textLength="44" x="208" y="690.5889">draw()</text></g><!--class Rectangle--><g id="elem_Rectangle"><rect codeLine="35" fill="#F1F1F1" height="113.1875" id="Rectangle" rx="2.5" ry="2.5" style="stroke:#181818;stroke-width:0.5;" width="131" x="349.5" y="593"/><ellipse cx="376.2" cy="609" fill="#ADD1B2" rx="11" ry="11" style="stroke:#181818;stroke-width:1.0;"/><path d="M378.5438,604.6719 C377.6063,604.2344 377.0125,604.0938 376.1375,604.0938 C373.5125,604.0938 371.5125,606.1719 371.5125,608.8906 L371.5125,610.0156 C371.5125,612.5938 373.6219,614.4844 376.5125,614.4844 C377.7313,614.4844 378.8875,614.1875 379.6375,613.6406 C380.2156,613.2344 380.5438,612.7813 380.5438,612.3906 C380.5438,611.9375 380.1531,611.5469 379.6844,611.5469 C379.4656,611.5469 379.2625,611.625 379.075,611.8125 C378.6219,612.2969 378.6219,612.2969 378.4344,612.3906 C378.0125,612.6563 377.325,612.7813 376.5594,612.7813 C374.5125,612.7813 373.2156,611.6875 373.2156,609.9844 L373.2156,608.8906 C373.2156,607.1094 374.4656,605.7969 376.2,605.7969 C376.7781,605.7969 377.3875,605.9531 377.8563,606.2031 C378.3406,606.4844 378.5125,606.7031 378.6063,607.1094 C378.6688,607.5156 378.7,607.6406 378.8406,607.7656 C378.9813,607.9063 379.2156,608.0156 379.4344,608.0156 C379.7,608.0156 379.9656,607.875 380.1375,607.6563 C380.2469,607.5 380.2781,607.3125 380.2781,606.8906 L380.2781,605.4688 C380.2781,605.0313 380.2625,604.9063 380.1688,604.75 C380.0125,604.4844 379.7313,604.3438 379.4344,604.3438 C379.1375,604.3438 378.9344,604.4375 378.7156,604.75 L378.5438,604.6719 Z " fill="#000000"/><text fill="#000000" font-family="sans-serif" font-size="14" lengthAdjust="spacing" textLength="73" x="392.8" y="613.8467">Rectangle</text><line style="stroke:#181818;stroke-width:0.5;" x1="350.5" x2="479.5" y1="625" y2="625"/><rect fill="none" height="6" style="stroke:#C82930;stroke-width:1.0;" width="6" x="357.5" y="635.6484"/><text fill="#000000" font-family="sans-serif" font-size="14" lengthAdjust="spacing" textLength="103" x="369.5" y="641.9951">topLeft: Point</text><rect fill="none" height="6" style="stroke:#C82930;stroke-width:1.0;" width="6" x="357.5" y="651.9453"/><text fill="#000000" font-family="sans-serif" font-size="14" lengthAdjust="spacing" textLength="98" x="369.5" y="658.292">width: double</text><rect fill="none" height="6" style="stroke:#C82930;stroke-width:1.0;" width="6" x="357.5" y="668.2422"/><text fill="#000000" font-family="sans-serif" font-size="14" lengthAdjust="spacing" textLength="105" x="369.5" y="674.5889">height: double</text><line style="stroke:#181818;stroke-width:0.5;" x1="350.5" x2="479.5" y1="681.8906" y2="681.8906"/><ellipse cx="360.5" cy="695.5391" fill="#84BE84" rx="3" ry="3" style="stroke:#038048;stroke-width:1.0;"/><text fill="#000000" font-family="sans-serif" font-size="14" lengthAdjust="spacing" textLength="44" x="369.5" y="698.8857">draw()</text></g><!--class Layer--><g id="elem_Layer"><rect codeLine="42" fill="#F1F1F1" height="113.1875" id="Layer" rx="2.5" ry="2.5" style="stroke:#181818;stroke-width:0.5;" width="220" x="431" y="411"/><ellipse cx="517.25" cy="427" fill="#ADD1B2" rx="11" ry="11" style="stroke:#181818;stroke-width:1.0;"/><path d="M519.5938,422.6719 C518.6563,422.2344 518.0625,422.0938 517.1875,422.0938 C514.5625,422.0938 512.5625,424.1719 512.5625,426.8906 L512.5625,428.0156 C512.5625,430.5938 514.6719,432.4844 517.5625,432.4844 C518.7813,432.4844 519.9375,432.1875 520.6875,431.6406 C521.2656,431.2344 521.5938,430.7813 521.5938,430.3906 C521.5938,429.9375 521.2031,429.5469 520.7344,429.5469 C520.5156,429.5469 520.3125,429.625 520.125,429.8125 C519.6719,430.2969 519.6719,430.2969 519.4844,430.3906 C519.0625,430.6563 518.375,430.7813 517.6094,430.7813 C515.5625,430.7813 514.2656,429.6875 514.2656,427.9844 L514.2656,426.8906 C514.2656,425.1094 515.5156,423.7969 517.25,423.7969 C517.8281,423.7969 518.4375,423.9531 518.9063,424.2031 C519.3906,424.4844 519.5625,424.7031 519.6563,425.1094 C519.7188,425.5156 519.75,425.6406 519.8906,425.7656 C520.0313,425.9063 520.2656,426.0156 520.4844,426.0156 C520.75,426.0156 521.0156,425.875 521.1875,425.6563 C521.2969,425.5 521.3281,425.3125 521.3281,424.8906 L521.3281,423.4688 C521.3281,423.0313 521.3125,422.9063 521.2188,422.75 C521.0625,422.4844 520.7813,422.3438 520.4844,422.3438 C520.1875,422.3438 519.9844,422.4375 519.7656,422.75 L519.5938,422.6719 Z " fill="#000000"/><text fill="#000000" font-family="sans-serif" font-size="14" lengthAdjust="spacing" textLength="39" x="537.75" y="431.8467">Layer</text><line style="stroke:#181818;stroke-width:0.5;" x1="432" x2="650" y1="443" y2="443"/><rect fill="none" height="6" style="stroke:#C82930;stroke-width:1.0;" width="6" x="439" y="453.6484"/><text fill="#000000" font-family="sans-serif" font-size="14" lengthAdjust="spacing" textLength="93" x="451" y="459.9951">name: String</text><rect fill="none" height="6" style="stroke:#C82930;stroke-width:1.0;" width="6" x="439" y="469.9453"/><text fill="#000000" font-family="sans-serif" font-size="14" lengthAdjust="spacing" textLength="113" x="451" y="476.292">visible: boolean</text><line style="stroke:#181818;stroke-width:0.5;" x1="432" x2="650" y1="483.5938" y2="483.5938"/><ellipse cx="442" cy="497.2422" fill="#84BE84" rx="3" ry="3" style="stroke:#038048;stroke-width:1.0;"/><text fill="#000000" font-family="sans-serif" font-size="14" lengthAdjust="spacing" textLength="167" x="451" y="500.5889">setName(name: String)</text><ellipse cx="442" cy="513.5391" fill="#84BE84" rx="3" ry="3" style="stroke:#038048;stroke-width:1.0;"/><text fill="#000000" font-family="sans-serif" font-size="14" lengthAdjust="spacing" textLength="194" x="451" y="516.8857">setVisible(visible: boolean)</text></g><!--class Point--><g id="elem_Point"><rect codeLine="49" fill="#F1F1F1" height="113.1875" id="Point" rx="2.5" ry="2.5" style="stroke:#181818;stroke-width:0.5;" width="135" x="573.5" y="7"/><ellipse cx="617.75" cy="23" fill="#ADD1B2" rx="11" ry="11" style="stroke:#181818;stroke-width:1.0;"/><path d="M620.0938,18.6719 C619.1563,18.2344 618.5625,18.0938 617.6875,18.0938 C615.0625,18.0938 613.0625,20.1719 613.0625,22.8906 L613.0625,24.0156 C613.0625,26.5938 615.1719,28.4844 618.0625,28.4844 C619.2813,28.4844 620.4375,28.1875 621.1875,27.6406 C621.7656,27.2344 622.0938,26.7813 622.0938,26.3906 C622.0938,25.9375 621.7031,25.5469 621.2344,25.5469 C621.0156,25.5469 620.8125,25.625 620.625,25.8125 C620.1719,26.2969 620.1719,26.2969 619.9844,26.3906 C619.5625,26.6563 618.875,26.7813 618.1094,26.7813 C616.0625,26.7813 614.7656,25.6875 614.7656,23.9844 L614.7656,22.8906 C614.7656,21.1094 616.0156,19.7969 617.75,19.7969 C618.3281,19.7969 618.9375,19.9531 619.4063,20.2031 C619.8906,20.4844 620.0625,20.7031 620.1563,21.1094 C620.2188,21.5156 620.25,21.6406 620.3906,21.7656 C620.5313,21.9063 620.7656,22.0156 620.9844,22.0156 C621.25,22.0156 621.5156,21.875 621.6875,21.6563 C621.7969,21.5 621.8281,21.3125 621.8281,20.8906 L621.8281,19.4688 C621.8281,19.0313 621.8125,18.9063 621.7188,18.75 C621.5625,18.4844 621.2813,18.3438 620.9844,18.3438 C620.6875,18.3438 620.4844,18.4375 620.2656,18.75 L620.0938,18.6719 Z " fill="#000000"/><text fill="#000000" font-family="sans-serif" font-size="14" lengthAdjust="spacing" textLength="38" x="638.25" y="27.8467">Point</text><line style="stroke:#181818;stroke-width:0.5;" x1="574.5" x2="707.5" y1="39" y2="39"/><rect fill="none" height="6" style="stroke:#C82930;stroke-width:1.0;" width="6" x="581.5" y="49.6484"/><text fill="#000000" font-family="sans-serif" font-size="14" lengthAdjust="spacing" textLength="66" x="593.5" y="55.9951">x: double</text><rect fill="none" height="6" style="stroke:#C82930;stroke-width:1.0;" width="6" x="581.5" y="65.9453"/><text fill="#000000" font-family="sans-serif" font-size="14" lengthAdjust="spacing" textLength="66" x="593.5" y="72.292">y: double</text><line style="stroke:#181818;stroke-width:0.5;" x1="574.5" x2="707.5" y1="79.5938" y2="79.5938"/><ellipse cx="584.5" cy="93.2422" fill="#84BE84" rx="3" ry="3" style="stroke:#038048;stroke-width:1.0;"/><text fill="#000000" font-family="sans-serif" font-size="14" lengthAdjust="spacing" textLength="109" x="593.5" y="96.5889">setX(x: double)</text><ellipse cx="584.5" cy="109.5391" fill="#84BE84" rx="3" ry="3" style="stroke:#038048;stroke-width:1.0;"/><text fill="#000000" font-family="sans-serif" font-size="14" lengthAdjust="spacing" textLength="108" x="593.5" y="112.8857">setY(y: double)</text></g><!--link User to Drawing--><g id="link_User_Drawing"><path codeLine="56" d="M468,112.196 C468,137.692 468,169.42 468,196.978 " fill="none" id="User-Drawing" style="stroke:#181818;stroke-width:1.0;"/><text fill="#000000" font-family="sans-serif" font-size="13" lengthAdjust="spacing" textLength="30" x="469" y="163.0669">uses</text></g><!--link Drawing to Shape--><g id="link_Drawing_Shape"><path codeLine="57" d="M400.232,326.208 C374.242,350.641 350.4327,373.0244 324.4557,397.4454 " fill="none" id="Drawing-to-Shape" style="stroke:#181818;stroke-width:1.0;"/><line style="stroke:#181818;stroke-width:1.0;" x1="324.4557" x2="324.1066" y1="397.4454" y2="402.925"/><line style="stroke:#181818;stroke-width:1.0;" x1="324.4557" x2="313.1474" y1="397.4454" y2="402.925"/><line style="stroke:#181818;stroke-width:1.0;" x1="324.4557" x2="318.627" y1="397.4454" y2="402.925"/><text fill="#000000" font-family="sans-serif" font-size="13" lengthAdjust="spacing" textLength="54" x="368" y="369.0669">contains</text></g><!--link Drawing to Layer--><g id="link_Drawing_Layer"><path codeLine="58" d="M490.797,326.208 C500.503,353.33 511.72,384.678 521.087,410.853 " fill="none" id="Drawing-Layer" style="stroke:#181818;stroke-width:1.0;"/><text fill="#000000" font-family="sans-serif" font-size="13" lengthAdjust="spacing" textLength="23" x="508" y="369.0669">has</text></g><!--reverse link Shape to Line--><g id="link_Shape_Line"><path codeLine="59" d="M178.0733,545.2648 C156.6483,567.8168 145.328,579.734 125.378,600.734 " fill="none" id="Shape-backto-Line" style="stroke:#181818;stroke-width:1.0;"/><polygon fill="none" points="190.471,532.215,173.7234,541.1323,182.4233,549.3974,190.471,532.215" style="stroke:#181818;stroke-width:1.0;"/></g><!--reverse link Shape to Circle--><g id="link_Shape_Circle"><path codeLine="60" d="M251,550.215 C251,572.767 251,579.734 251,600.734 " fill="none" id="Shape-backto-Circle" style="stroke:#181818;stroke-width:1.0;"/><polygon fill="none" points="251,532.215,245,550.215,257,550.215,251,532.215" style="stroke:#181818;stroke-width:1.0;"/></g><!--reverse link Shape to Rectangle--><g id="link_Shape_Rectangle"><path codeLine="61" d="M321.1738,545.5205 C339.2338,565.3425 346.87,573.724 364.381,592.943 " fill="none" id="Shape-backto-Rectangle" style="stroke:#181818;stroke-width:1.0;"/><polygon fill="none" points="309.051,532.215,316.7386,549.5615,325.609,541.4796,309.051,532.215" style="stroke:#181818;stroke-width:1.0;"/></g><!--SRC=[TL9DJyCm3BttL-GO11NtQk8o92uLclYOu9WbPhNK9LNYRYk3_qwIVf2ESOhUi_tyR4VMmZdswi2oKyROjRGW2EwjEA3Uygj0WKAQ4KxiauplB9DHPA2YJkugqO0hM8cE5iy1t0LQjjQ2fb9qO7qmF45HA1LpU2mhM0InbuMTsSC_GGUqJ0JN20TUYywqTFjWKINUOatlh34E2OqksCgWfg0JMhmOtWGyq4DpXv_03wYeAfWoxQQ66rO1RYiQSPzeo6-DAzXQ25Cd8UMtacwfH3qOSIGihPAUWGIjpgW_2akqiXuqf9yzR7Agjq9XEpcuLFu4aeJUZWfacX8-KWkpSGCn7_ZYK67zlPuMkt0Ziluh1Bn7XxwgO1jZQX1wkDkZJ-DfxdZGTP_Fp-kIRj5ft-sO-knIYrxgZHzdf_3KE-z-AIyOFtwUJt-tOAq3buqmpq_3rocOD9e4wZGup5smIhYiprjy1ThVECNznL9cEi8F]--></g></svg>