<?xml version="1.0" encoding="us-ascii" standalone="no"?><svg xmlns="http://www.w3.org/2000/svg" xmlns:xlink="http://www.w3.org/1999/xlink" contentStyleType="text/css" height="539px" preserveAspectRatio="none" style="width:2116px;height:539px;background:#FFFFFF;" version="1.1" viewBox="0 0 2116 539" width="2116px" zoomAndPan="magnify"><defs/><g><!--cluster CADSystem--><g id="cluster_CADSystem"><path d="M8.5,6 L146.5,6 A3.75,3.75 0 0 1 149,8.5 L156,28.2969 L2106.5,28.2969 A2.5,2.5 0 0 1 2109,30.7969 L2109,529.86 A2.5,2.5 0 0 1 2106.5,532.36 L8.5,532.36 A2.5,2.5 0 0 1 6,529.86 L6,8.5 A2.5,2.5 0 0 1 8.5,6 " fill="none" style="stroke:#000000;stroke-width:1.5;"/><line style="stroke:#000000;stroke-width:1.5;" x1="6" x2="156" y1="28.2969" y2="28.2969"/><text fill="#000000" font-family="sans-serif" font-size="14" font-weight="bold" lengthAdjust="spacing" textLength="137" x="10" y="20.9951">2D CAD Software</text></g><!--cluster UI--><g id="cluster_UI"><path d="M40.5,57 L156.5,57 A3.75,3.75 0 0 1 159,59.5 L166,79.2969 L802.5,79.2969 A2.5,2.5 0 0 1 805,81.7969 L805,273.5 A2.5,2.5 0 0 1 802.5,276 L40.5,276 A2.5,2.5 0 0 1 38,273.5 L38,59.5 A2.5,2.5 0 0 1 40.5,57 " fill="none" style="stroke:#000000;stroke-width:1.5;"/><line style="stroke:#000000;stroke-width:1.5;" x1="38" x2="166" y1="79.2969" y2="79.2969"/><text fill="#000000" font-family="sans-serif" font-size="14" font-weight="bold" lengthAdjust="spacing" textLength="115" x="42" y="71.9951">User Interface</text></g><!--cluster Drawing--><g id="cluster_Drawing"><path d="M847.5,201.64 L972.5,201.64 A3.75,3.75 0 0 1 975,204.14 L982,223.9369 L1290.5,223.9369 A2.5,2.5 0 0 1 1293,226.4369 L1293,387.86 A2.5,2.5 0 0 1 1290.5,390.36 L847.5,390.36 A2.5,2.5 0 0 1 845,387.86 L845,204.14 A2.5,2.5 0 0 1 847.5,201.64 " fill="none" style="stroke:#000000;stroke-width:1.5;"/><line style="stroke:#000000;stroke-width:1.5;" x1="845" x2="982" y1="223.9369" y2="223.9369"/><text fill="#000000" font-family="sans-serif" font-size="14" font-weight="bold" lengthAdjust="spacing" textLength="124" x="849" y="216.6351">Drawing Engine</text></g><!--cluster FileManager--><g id="cluster_FileManager"><path d="M1569.5,201.64 L1708.5,201.64 A3.75,3.75 0 0 1 1711,204.14 L1718,223.9369 L2074.5,223.9369 A2.5,2.5 0 0 1 2077,226.4369 L2077,387.86 A2.5,2.5 0 0 1 2074.5,390.36 L1569.5,390.36 A2.5,2.5 0 0 1 1567,387.86 L1567,204.14 A2.5,2.5 0 0 1 1569.5,201.64 " fill="none" style="stroke:#000000;stroke-width:1.5;"/><line style="stroke:#000000;stroke-width:1.5;" x1="1567" x2="1718" y1="223.9369" y2="223.9369"/><text fill="#000000" font-family="sans-serif" font-size="14" font-weight="bold" lengthAdjust="spacing" textLength="138" x="1571" y="216.6351">File Management</text></g><!--cluster Render--><g id="cluster_Render"><path d="M1335.5,316 L1417.5,316 A3.75,3.75 0 0 1 1420,318.5 L1427,338.2969 L1524.5,338.2969 A2.5,2.5 0 0 1 1527,340.7969 L1527,497.86 A2.5,2.5 0 0 1 1524.5,500.36 L1335.5,500.36 A2.5,2.5 0 0 1 1333,497.86 L1333,318.5 A2.5,2.5 0 0 1 1335.5,316 " fill="none" style="stroke:#000000;stroke-width:1.5;"/><line style="stroke:#000000;stroke-width:1.5;" x1="1333" x2="1427" y1="338.2969" y2="338.2969"/><text fill="#000000" font-family="sans-serif" font-size="14" font-weight="bold" lengthAdjust="spacing" textLength="81" x="1337" y="330.9951">Rendering</text></g><!--entity UIElement--><g id="elem_UIElement"><rect fill="#F1F1F1" height="46.2969" rx="2.5" ry="2.5" style="stroke:#181818;stroke-width:0.5;" width="141" x="364.5" y="100"/><rect fill="#F1F1F1" height="10" style="stroke:#181818;stroke-width:0.5;" width="15" x="485.5" y="105"/><rect fill="#F1F1F1" height="2" style="stroke:#181818;stroke-width:0.5;" width="4" x="483.5" y="107"/><rect fill="#F1F1F1" height="2" style="stroke:#181818;stroke-width:0.5;" width="4" x="483.5" y="111"/><text fill="#000000" font-family="sans-serif" font-size="14" lengthAdjust="spacing" textLength="101" x="379.5" y="132.9951">User Interface</text></g><!--entity Drawing Tools--><g id="elem_Drawing Tools"><rect fill="#F1F1F1" height="46.2969" rx="2.5" ry="2.5" style="stroke:#181818;stroke-width:0.5;" width="140" x="62" y="206"/><rect fill="#F1F1F1" height="10" style="stroke:#181818;stroke-width:0.5;" width="15" x="182" y="211"/><rect fill="#F1F1F1" height="2" style="stroke:#181818;stroke-width:0.5;" width="4" x="180" y="213"/><rect fill="#F1F1F1" height="2" style="stroke:#181818;stroke-width:0.5;" width="4" x="180" y="217"/><text fill="#000000" font-family="sans-serif" font-size="14" lengthAdjust="spacing" textLength="100" x="77" y="238.9951">Drawing Tools</text></g><!--entity File Menu--><g id="elem_File Menu"><rect fill="#F1F1F1" height="46.2969" rx="2.5" ry="2.5" style="stroke:#181818;stroke-width:0.5;" width="107" x="237.5" y="206"/><rect fill="#F1F1F1" height="10" style="stroke:#181818;stroke-width:0.5;" width="15" x="324.5" y="211"/><rect fill="#F1F1F1" height="2" style="stroke:#181818;stroke-width:0.5;" width="4" x="322.5" y="213"/><rect fill="#F1F1F1" height="2" style="stroke:#181818;stroke-width:0.5;" width="4" x="322.5" y="217"/><text fill="#000000" font-family="sans-serif" font-size="14" lengthAdjust="spacing" textLength="67" x="252.5" y="238.9951">File Menu</text></g><!--entity Edit Menu--><g id="elem_Edit Menu"><rect fill="#F1F1F1" height="46.2969" rx="2.5" ry="2.5" style="stroke:#181818;stroke-width:0.5;" width="111" x="379.5" y="206"/><rect fill="#F1F1F1" height="10" style="stroke:#181818;stroke-width:0.5;" width="15" x="470.5" y="211"/><rect fill="#F1F1F1" height="2" style="stroke:#181818;stroke-width:0.5;" width="4" x="468.5" y="213"/><rect fill="#F1F1F1" height="2" style="stroke:#181818;stroke-width:0.5;" width="4" x="468.5" y="217"/><text fill="#000000" font-family="sans-serif" font-size="14" lengthAdjust="spacing" textLength="71" x="394.5" y="238.9951">Edit Menu</text></g><!--entity View Menu--><g id="elem_View Menu"><rect fill="#F1F1F1" height="46.2969" rx="2.5" ry="2.5" style="stroke:#181818;stroke-width:0.5;" width="116" x="526" y="206"/><rect fill="#F1F1F1" height="10" style="stroke:#181818;stroke-width:0.5;" width="15" x="622" y="211"/><rect fill="#F1F1F1" height="2" style="stroke:#181818;stroke-width:0.5;" width="4" x="620" y="213"/><rect fill="#F1F1F1" height="2" style="stroke:#181818;stroke-width:0.5;" width="4" x="620" y="217"/><text fill="#000000" font-family="sans-serif" font-size="14" lengthAdjust="spacing" textLength="76" x="541" y="238.9951">View Menu</text></g><!--entity Toolbar--><g id="elem_Toolbar"><rect fill="#F1F1F1" height="46.2969" rx="2.5" ry="2.5" style="stroke:#181818;stroke-width:0.5;" width="95" x="677.5" y="206"/><rect fill="#F1F1F1" height="10" style="stroke:#181818;stroke-width:0.5;" width="15" x="752.5" y="211"/><rect fill="#F1F1F1" height="2" style="stroke:#181818;stroke-width:0.5;" width="4" x="750.5" y="213"/><rect fill="#F1F1F1" height="2" style="stroke:#181818;stroke-width:0.5;" width="4" x="750.5" y="217"/><text fill="#000000" font-family="sans-serif" font-size="14" lengthAdjust="spacing" textLength="55" x="692.5" y="238.9951">Toolbar</text></g><!--entity Shapes--><g id="elem_Shapes"><rect fill="#F1F1F1" height="46.2969" rx="2.5" ry="2.5" style="stroke:#181818;stroke-width:0.5;" width="92" x="1177" y="320.36"/><rect fill="#F1F1F1" height="10" style="stroke:#181818;stroke-width:0.5;" width="15" x="1249" y="325.36"/><rect fill="#F1F1F1" height="2" style="stroke:#181818;stroke-width:0.5;" width="4" x="1247" y="327.36"/><rect fill="#F1F1F1" height="2" style="stroke:#181818;stroke-width:0.5;" width="4" x="1247" y="331.36"/><text fill="#000000" font-family="sans-serif" font-size="14" lengthAdjust="spacing" textLength="52" x="1192" y="353.3551">Shapes</text></g><!--entity Layers--><g id="elem_Layers"><rect fill="#F1F1F1" height="46.2969" rx="2.5" ry="2.5" style="stroke:#181818;stroke-width:0.5;" width="86" x="1056" y="320.36"/><rect fill="#F1F1F1" height="10" style="stroke:#181818;stroke-width:0.5;" width="15" x="1122" y="325.36"/><rect fill="#F1F1F1" height="2" style="stroke:#181818;stroke-width:0.5;" width="4" x="1120" y="327.36"/><rect fill="#F1F1F1" height="2" style="stroke:#181818;stroke-width:0.5;" width="4" x="1120" y="331.36"/><text fill="#000000" font-family="sans-serif" font-size="14" lengthAdjust="spacing" textLength="46" x="1071" y="353.3551">Layers</text></g><!--entity Drawing Canvas--><g id="elem_Drawing Canvas"><rect fill="#F1F1F1" height="46.2969" rx="2.5" ry="2.5" style="stroke:#181818;stroke-width:0.5;" width="152" x="869" y="320.36"/><rect fill="#F1F1F1" height="10" style="stroke:#181818;stroke-width:0.5;" width="15" x="1001" y="325.36"/><rect fill="#F1F1F1" height="2" style="stroke:#181818;stroke-width:0.5;" width="4" x="999" y="327.36"/><rect fill="#F1F1F1" height="2" style="stroke:#181818;stroke-width:0.5;" width="4" x="999" y="331.36"/><text fill="#000000" font-family="sans-serif" font-size="14" lengthAdjust="spacing" textLength="112" x="884" y="353.3551">Drawing Canvas</text></g><!--entity Open/Save--><g id="elem_Open/Save"><rect fill="#F1F1F1" height="46.2969" rx="2.5" ry="2.5" style="stroke:#181818;stroke-width:0.5;" width="118" x="1935" y="320.36"/><rect fill="#F1F1F1" height="10" style="stroke:#181818;stroke-width:0.5;" width="15" x="2033" y="325.36"/><rect fill="#F1F1F1" height="2" style="stroke:#181818;stroke-width:0.5;" width="4" x="2031" y="327.36"/><rect fill="#F1F1F1" height="2" style="stroke:#181818;stroke-width:0.5;" width="4" x="2031" y="331.36"/><text fill="#000000" font-family="sans-serif" font-size="14" lengthAdjust="spacing" textLength="78" x="1950" y="353.3551">Open/Save</text></g><!--entity Import/Export--><g id="elem_Import/Export"><rect fill="#F1F1F1" height="46.2969" rx="2.5" ry="2.5" style="stroke:#181818;stroke-width:0.5;" width="144" x="1756" y="320.36"/><rect fill="#F1F1F1" height="10" style="stroke:#181818;stroke-width:0.5;" width="15" x="1880" y="325.36"/><rect fill="#F1F1F1" height="2" style="stroke:#181818;stroke-width:0.5;" width="4" x="1878" y="327.36"/><rect fill="#F1F1F1" height="2" style="stroke:#181818;stroke-width:0.5;" width="4" x="1878" y="331.36"/><text fill="#000000" font-family="sans-serif" font-size="14" lengthAdjust="spacing" textLength="104" x="1771" y="353.3551">Import/Export</text></g><!--entity File Explorer--><g id="elem_File Explorer"><rect fill="#F1F1F1" height="46.2969" rx="2.5" ry="2.5" style="stroke:#181818;stroke-width:0.5;" width="130" x="1591" y="320.36"/><rect fill="#F1F1F1" height="10" style="stroke:#181818;stroke-width:0.5;" width="15" x="1701" y="325.36"/><rect fill="#F1F1F1" height="2" style="stroke:#181818;stroke-width:0.5;" width="4" x="1699" y="327.36"/><rect fill="#F1F1F1" height="2" style="stroke:#181818;stroke-width:0.5;" width="4" x="1699" y="331.36"/><text fill="#000000" font-family="sans-serif" font-size="14" lengthAdjust="spacing" textLength="90" x="1606" y="353.3551">File Explorer</text></g><!--entity Render Engine--><g id="elem_Render Engine"><rect fill="#F1F1F1" height="46.2969" rx="2.5" ry="2.5" style="stroke:#181818;stroke-width:0.5;" width="145" x="1357.5" y="430.36"/><rect fill="#F1F1F1" height="10" style="stroke:#181818;stroke-width:0.5;" width="15" x="1482.5" y="435.36"/><rect fill="#F1F1F1" height="2" style="stroke:#181818;stroke-width:0.5;" width="4" x="1480.5" y="437.36"/><rect fill="#F1F1F1" height="2" style="stroke:#181818;stroke-width:0.5;" width="4" x="1480.5" y="441.36"/><text fill="#000000" font-family="sans-serif" font-size="14" lengthAdjust="spacing" textLength="105" x="1372.5" y="463.3551">Render Engine</text></g><!--link UIElement to Drawing Tools--><g id="link_UIElement_Drawing Tools"><path d="M364.302,141.04 C321.879,152.058 267.173,167.673 220,185.64 C204.789,191.434 188.611,198.839 174.33,205.833 " fill="none" id="UIElement-Drawing Tools" style="stroke:#181818;stroke-width:1.0;"/></g><!--link UIElement to File Menu--><g id="link_UIElement_File Menu"><path d="M404.461,146.056 C380.024,163.705 345.92,188.335 321.495,205.976 " fill="none" id="UIElement-File Menu" style="stroke:#181818;stroke-width:1.0;"/></g><!--link UIElement to Edit Menu--><g id="link_UIElement_Edit Menu"><path d="M435,146.056 C435,163.705 435,188.335 435,205.976 " fill="none" id="UIElement-Edit Menu" style="stroke:#181818;stroke-width:1.0;"/></g><!--link UIElement to View Menu--><g id="link_UIElement_View Menu"><path d="M466.599,146.056 C491.885,163.705 527.173,188.335 552.446,205.976 " fill="none" id="UIElement-View Menu" style="stroke:#181818;stroke-width:1.0;"/></g><!--link UIElement to Toolbar--><g id="link_UIElement_Toolbar"><path d="M505.881,145.121 C506.928,145.417 507.968,145.71 509,146 C575.389,164.636 595.883,157.871 659,185.64 C671.338,191.068 684.004,198.633 694.898,205.87 " fill="none" id="UIElement-Toolbar" style="stroke:#181818;stroke-width:1.0;"/></g><!--link Drawing to Shapes--><g id="link_Drawing_Shapes"><path d="M1099.09,230.081 C1101.76,232.5 1163.26,288.229 1198.59,320.245 " fill="none" id="Drawing-Shapes" style="stroke:#181818;stroke-width:1.0;"/></g><!--link Drawing to Layers--><g id="link_Drawing_Layers"><path d="M1099,230.081 C1099,232.5 1099,288.229 1099,320.245 " fill="none" id="Drawing-Layers" style="stroke:#181818;stroke-width:1.0;"/></g><!--link Drawing to Drawing Canvas--><g id="link_Drawing_Drawing Canvas"><path d="M1098.89,230.081 C1095.57,232.5 1019.19,288.229 975.311,320.245 " fill="none" id="Drawing-Drawing Canvas" style="stroke:#181818;stroke-width:1.0;"/></g><!--link FileManager to Open/Save--><g id="link_FileManager_Open/Save"><path d="M1742.07,230.025 C1745.12,231.059 1843.15,264.441 1918,300 C1930.83,306.093 1944.48,313.423 1956.62,320.26 " fill="none" id="FileManager-Open/Save" style="stroke:#181818;stroke-width:1.0;"/></g><!--link FileManager to Import/Export--><g id="link_FileManager_Import/Export"><path d="M1742.06,230.081 C1743.91,232.5 1786.57,288.229 1811.07,320.245 " fill="none" id="FileManager-Import/Export" style="stroke:#181818;stroke-width:1.0;"/></g><!--link FileManager to File Explorer--><g id="link_FileManager_File Explorer"><path d="M1741.94,230.081 C1740.09,232.5 1697.43,288.229 1672.93,320.245 " fill="none" id="FileManager-File Explorer" style="stroke:#181818;stroke-width:1.0;"/></g><!--link Render to Render Engine--><g id="link_Render_Render Engine"><path d="M1385.03,344.438 C1385.99,346.744 1407.95,399.45 1420.82,430.338 " fill="none" id="Render-Render Engine" style="stroke:#181818;stroke-width:1.0;"/></g><!--link UI to Drawing--><g id="link_UI_Drawing"><path d="M805.4728,126.9178 C807.1466,127.4942 809.0491,128.1494 811.1625,128.8772 C819.6162,131.7884 831.446,135.8622 845.5265,140.7111 C873.6873,150.4089 910.8508,163.2069 948.0134,176.0045 C966.5947,182.4033 985.1757,188.802 1002.6311,194.8131 C1006.995,196.3158 1011.2884,197.7944 1015.494,199.2426 C1017.5968,199.9668 1014.0045,198.7297 1016.0611,199.4379 " fill="none" id="UI-to-Drawing" style="stroke:#181818;stroke-width:1.0;stroke-dasharray:7.0,7.0;"/><polygon fill="#181818" points="1021.7342,201.3915,1014.527,194.6791,1017.0066,199.7635,1011.9222,202.2432,1021.7342,201.3915" style="stroke:#181818;stroke-width:1.0;"/></g><!--link UI to FileManager--><g id="link_UI_FileManager"><path d="M805.0538,124.8866 C805.4299,124.928 805.8187,124.9708 806.22,125.0149 C807.0226,125.1033 807.8754,125.1971 808.7775,125.2964 C815.9942,126.0906 826.3659,127.232 839.4418,128.6711 C865.5936,131.5491 902.5623,135.6176 946.7424,140.4797 C1035.1024,150.2039 1152.3074,163.1026 1269.5116,176.0011 C1328.1137,182.4504 1386.7156,188.8997 1441.7115,194.9521 C1469.2095,197.9783 1495.806,200.9053 1521.0503,203.6835 C1533.6724,205.0726 1545.9565,206.4245 1557.8462,207.7329 C1560.8187,208.0601 1557.8024,207.7281 1560.7247,208.0497 " fill="none" id="UI-to-FileManager" style="stroke:#181818;stroke-width:1.0;stroke-dasharray:7.0,7.0;"/><polygon fill="#181818" points="1566.6887,208.7061,1558.1803,203.7455,1561.7187,208.1591,1557.3051,211.6975,1566.6887,208.7061" style="stroke:#181818;stroke-width:1.0;"/></g><!--link Drawing to Render--><g id="link_Drawing_Render"><path d="M1293.2406,303.3195 C1296.0158,304.4453 1298.8143,305.5882 1301.6218,306.7413 C1307.2366,309.0474 1312.887,311.3942 1318.4566,313.7267 C1321.2413,314.8929 1324.0059,316.0556 1326.7357,317.2078 C1328.1006,317.7839 1329.4568,318.3574 1330.8025,318.9274 C1331.4753,319.2124 1332.1455,319.4966 1332.8129,319.7797 C1332.8546,319.7974 1327.373,317.4713 1327.4147,317.489 " fill="none" id="Drawing-to-Render" style="stroke:#181818;stroke-width:1.0;stroke-dasharray:7.0,7.0;"/><polygon fill="#181818" points="1332.938,319.8328,1326.2156,312.6349,1328.3353,317.8796,1323.0905,319.9993,1332.938,319.8328" style="stroke:#181818;stroke-width:1.0;"/></g><!--SRC=[TLF1ReCm3Btp5MdlRQMTAwIfC0bfqwInxZBru1P3qI2Wa9PLK_zzX10mKPeBoVFByxCT5WccEKUsUmxYAfKj26JRhTdwFlCM0oE-79jR8x5KSRDN1A-6qmzao9PFWT9XvlQIGTCBwsj_7klMIDutA5Z49OeKJfgxZmQIMjzpma4JmW9Bv79Y1GBQd6ViiwgAvZ3XBtc1x0tvXM1XaaiR-ygnjJ6bTGGn8UDcDC1MguUvvoI7aJd1uMfES5YS4sP-xzxeUEorCHhoh1jbtsi3aOR7PwYHzl0LRYWeO2xjW5-XSVJ749GhMux6R6KQSoLn5QKR2xmxg4xqLIbCGu9MzbuZtyHmHL9BLDQLa9lmLttiXzEXHINGzGHe2cNNeMrJ7gIoQOxChhe_a2SekWxr5UiJBNP0zAmT1GnnbT519Hcxtt6zziriA4ISUtHyAgOrjShz7m00]--></g></svg>